<?xml version="1.0" standalone="no"?>
<!DOCTYPE svg PUBLIC "-//W3C//DTD SVG 20010904//EN"
 "http://www.w3.org/TR/2001/REC-SVG-20010904/DTD/svg10.dtd">
<svg version="1.0" xmlns="http://www.w3.org/2000/svg"
 width="256.000000pt" height="256.000000pt" viewBox="0 0 256.000000 256.000000"
 preserveAspectRatio="xMidYMid meet">
<metadata>
Created by potrace 1.14, written by Peter Selinger 2001-2017
</metadata>
<g transform="translate(0.000000,256.000000) scale(0.100000,-0.100000)"
fill="#000000" stroke="none">
<path d="M1074 2532 c-49 -14 -103 -48 -137 -87 -50 -57 -102 -200 -106 -289
-1 -17 -8 -18 -93 -13 -51 3 -133 15 -183 27 -207 50 -376 14 -417 -88 -16
-40 -17 -123 -2 -153 36 -71 154 -151 289 -197 118 -39 268 -69 362 -71 l23
-1 -24 -62 c-13 -35 -42 -99 -64 -144 -68 -132 -82 -245 -46 -361 23 -75 99
-151 212 -213 178 -97 187 -103 172 -108 -8 -2 -27 -16 -43 -30 -15 -14 -40
-28 -55 -29 -86 -11 -138 -51 -179 -139 -25 -53 -28 -70 -28 -164 1 -85 5
-116 23 -161 28 -70 75 -142 107 -163 13 -9 84 -28 157 -43 241 -49 480 -33
579 38 30 21 31 21 70 4 59 -27 117 -7 186 64 31 32 29 41 -9 37 -49 -5 -78
12 -78 46 0 34 62 161 95 194 34 34 37 55 16 95 -12 23 -16 41 -11 50 6 9 3
21 -9 34 -10 11 -26 36 -35 55 -31 67 -107 136 -156 143 -41 6 -34 31 23 92
40 42 60 56 73 51 33 -10 116 -16 128 -9 6 4 20 9 30 10 24 4 22 1 30 44 6 33
4 36 -29 52 -20 9 -33 22 -30 29 3 7 -9 22 -26 34 -29 20 -30 25 -33 105 -2
46 -5 89 -6 94 -2 6 2 29 9 53 40 140 3 326 -83 416 -27 29 -33 42 -24 48 7 4
17 8 22 8 24 0 197 94 241 131 95 78 193 222 230 338 23 69 15 128 -20 158
-53 46 -173 61 -261 33 -22 -7 -93 -47 -159 -90 -66 -43 -145 -92 -176 -109
l-57 -32 -30 53 c-82 145 -205 226 -352 232 -37 1 -89 -4 -116 -12z"/>
</g>
</svg>
