<svg width="191" height="44" viewBox="0 0 191 44" fill="none" xmlns="http://www.w3.org/2000/svg">
<path d="M189.944 21C189.944 22.1441 189.114 23.4611 187.051 24.8394C185.025 26.193 182.027 27.4509 178.233 28.523C170.658 30.6632 160.135 32 148.472 32C136.809 32 126.287 30.6632 118.712 28.523C114.917 27.4509 111.919 26.193 109.893 24.8394C107.83 23.4611 107 22.1441 107 21C107 19.8559 107.83 18.539 109.893 17.1606C111.919 15.8071 114.917 14.5491 118.712 13.4771C126.287 11.3369 136.809 10 148.472 10C160.135 10 170.658 11.3369 178.233 13.4771C182.027 14.5491 185.025 15.8071 187.051 17.1606C189.114 18.539 189.944 19.8559 189.944 21Z" fill="white" stroke="black" stroke-width="2"/>
<ellipse cx="127.026" cy="21.5" rx="6.72825" ry="5.5" fill="black"/>
<path d="M189.647 19.0089C189.427 18.9743 189.181 18.9369 188.907 18.8972C187.4 18.6785 185.057 18.3885 181.694 18.0989C174.969 17.5198 164.164 16.9423 147.808 16.9423C131.454 16.9423 120.978 17.5198 114.583 18.0992C111.385 18.389 109.206 18.6793 107.82 18.8987C107.603 18.9331 107.404 18.9658 107.225 18.9965C107.45 18.5277 107.76 17.9417 108.177 17.2702C109.298 15.4612 111.19 13.0282 114.259 10.5869C120.388 5.71161 131.277 0.750002 150.253 0.750008C166.685 0.750012 176.685 5.69587 182.566 10.5771C185.512 13.0227 187.439 15.4637 188.625 17.2845C189.061 17.9533 189.397 18.5383 189.647 19.0089Z" fill="#A6A6A6" stroke="black" stroke-width="1.5"/>
<path d="M107.314 23.5119C107.41 23.5332 107.511 23.5552 107.617 23.5777C108.912 23.853 110.967 24.2143 114.039 24.5697C120.181 25.2804 130.401 25.9685 146.757 25.8927C163.114 25.817 174.185 25.0302 181.174 24.2601C184.67 23.8751 187.145 23.4941 188.752 23.2081C189.132 23.1405 189.463 23.0781 189.748 23.0223C189.521 23.5503 189.196 24.2279 188.75 25.013C187.631 26.9793 185.744 29.6201 182.683 32.2731C176.573 37.5687 165.711 42.9742 146.752 43.062C130.34 43.1379 120.331 37.8472 114.432 32.5995C111.476 29.9695 109.538 27.3381 108.342 25.3711C107.904 24.651 107.566 24.0203 107.314 23.5119Z" fill="#A6A6A6" stroke="black" stroke-width="1.5"/>
<path d="M83.9442 21C83.9442 22.1441 83.1145 23.4611 81.0511 24.8394C79.0248 26.193 76.0268 27.4509 72.2325 28.523C64.6577 30.6632 54.1354 32 42.4721 32C30.8088 32 20.2865 30.6632 12.7117 28.523C8.91737 27.4509 5.91942 26.193 3.89313 24.8394C1.8297 23.4611 1 22.1441 1 21C1 19.8559 1.8297 18.539 3.89313 17.1606C5.91942 15.8071 8.91737 14.5491 12.7117 13.4771C20.2865 11.3369 30.8088 10 42.4721 10C54.1354 10 64.6577 11.3369 72.2325 13.4771C76.0268 14.5491 79.0248 15.8071 81.0511 17.1606C83.1145 18.539 83.9442 19.8559 83.9442 21Z" fill="white" stroke="black" stroke-width="2"/>
<ellipse cx="21.0258" cy="21.5" rx="6.72825" ry="5.5" fill="black"/>
<path d="M83.6468 19.0089C83.4271 18.9743 83.1808 18.9369 82.907 18.8972C81.3999 18.6785 79.0568 18.3885 75.6942 18.0989C68.9695 17.5198 58.1636 16.9423 41.8085 16.9423C25.4537 16.9423 14.9783 17.5198 8.58302 18.0992C5.3851 18.389 3.2057 18.6793 1.82024 18.8987C1.60258 18.9331 1.40448 18.9658 1.22507 18.9965C1.44996 18.5277 1.76029 17.9417 2.17663 17.2702C3.29811 15.4612 5.19036 13.0282 8.25918 10.5869C14.3876 5.71161 25.2769 0.750002 44.2532 0.750008C60.6845 0.750012 70.685 5.69587 76.5659 10.5771C79.5124 13.0227 81.4387 15.4637 82.6252 17.2845C83.061 17.9533 83.397 18.5383 83.6468 19.0089Z" fill="#A6A6A6" stroke="black" stroke-width="1.5"/>
<path d="M1.31405 23.5119C1.40998 23.5332 1.51084 23.5552 1.61676 23.5777C2.9119 23.853 4.96703 24.2143 8.03872 24.5697C14.1812 25.2804 24.401 25.9685 40.7571 25.8927C57.1143 25.817 68.1846 25.0302 75.1744 24.2601C78.6695 23.8751 81.145 23.4941 82.7517 23.2081C83.1318 23.1405 83.4633 23.0781 83.7482 23.0223C83.5206 23.5503 83.1963 24.2279 82.7496 25.013C81.6309 26.9793 79.7441 29.6201 76.683 32.2731C70.5727 37.5687 59.7109 42.9742 40.7521 43.062C24.3398 43.1379 14.331 37.8472 8.4322 32.5995C5.47591 29.9695 3.53836 27.3381 2.34237 25.3711C1.9045 24.651 1.56626 24.0203 1.31405 23.5119Z" fill="#A6A6A6" stroke="black" stroke-width="1.5"/>
</svg>
