<svg width="197" height="129" viewBox="0 0 197 129" fill="none" xmlns="http://www.w3.org/2000/svg">
<path d="M83.9442 63C83.9442 64.1441 83.1145 65.4611 81.0511 66.8394C79.0248 68.193 76.0268 69.4509 72.2325 70.523C64.6577 72.6632 54.1354 74 42.4721 74C30.8088 74 20.2865 72.6632 12.7117 70.523C8.91737 69.4509 5.91942 68.193 3.89313 66.8394C1.8297 65.4611 1 64.1441 1 63C1 61.8559 1.8297 60.539 3.89313 59.1606C5.91942 57.8071 8.91737 56.5491 12.7117 55.4771C20.2865 53.3369 30.8088 52 42.4721 52C54.1354 52 64.6577 53.3369 72.2325 55.4771C76.0268 56.5491 79.0248 57.8071 81.0511 59.1606C83.1145 60.539 83.9442 61.8559 83.9442 63Z" fill="white" stroke="black" stroke-width="2"/>
<ellipse cx="21.0258" cy="63.5" rx="6.72825" ry="5.5" fill="black"/>
<path d="M83.6468 61.0089C83.4271 60.9743 83.1808 60.9369 82.907 60.8972C81.3999 60.6785 79.0568 60.3885 75.6942 60.0989C68.9695 59.5198 58.1636 58.9423 41.8085 58.9423C25.4537 58.9423 14.9783 59.5198 8.58302 60.0992C5.3851 60.389 3.2057 60.6793 1.82024 60.8987C1.60258 60.9331 1.40448 60.9658 1.22507 60.9965C1.44996 60.5277 1.76029 59.9417 2.17663 59.2702C3.29811 57.4612 5.19036 55.0282 8.25918 52.5869C14.3876 47.7116 25.2769 42.75 44.2532 42.75C60.6845 42.75 70.685 47.6959 76.5659 52.5771C79.5124 55.0227 81.4387 57.4637 82.6252 59.2845C83.061 59.9533 83.397 60.5383 83.6468 61.0089Z" fill="#A6A6A6" stroke="black" stroke-width="1.5"/>
<path d="M1.31405 65.5119C1.40998 65.5332 1.51084 65.5552 1.61676 65.5777C2.9119 65.853 4.96703 66.2143 8.03872 66.5697C14.1812 67.2804 24.401 67.9685 40.7571 67.8927C57.1143 67.817 68.1846 67.0302 75.1744 66.2601C78.6695 65.8751 81.145 65.4941 82.7517 65.2081C83.1318 65.1405 83.4633 65.0781 83.7482 65.0223C83.5206 65.5503 83.1963 66.2279 82.7496 67.013C81.6309 68.9793 79.7441 71.6201 76.683 74.2731C70.5727 79.5687 59.7109 84.9742 40.7521 85.062C24.3398 85.1379 14.331 79.8472 8.4322 74.5995C5.47591 71.9695 3.53836 69.3381 2.34237 67.3711C1.9045 66.651 1.56626 66.0203 1.31405 65.5119Z" fill="#A6A6A6" stroke="black" stroke-width="1.5"/>
<path d="M192.357 62.5356C193.089 79.6048 188.729 95.2327 181.139 106.699C173.547 118.167 162.776 125.411 150.656 125.931C138.536 126.451 127.184 120.156 118.638 109.38C110.094 98.6055 104.412 83.4083 103.68 66.3391C102.947 49.2699 107.307 33.642 114.898 22.1754C122.49 10.7076 133.26 3.46357 145.381 2.94371C157.501 2.42385 168.852 8.71903 177.398 19.4946C185.943 30.2692 191.625 45.4664 192.357 62.5356Z" fill="white" stroke="black" stroke-width="2"/>
<path d="M145.939 62.698C150.084 96.1326 142.764 113.56 141.774 113.605C140.784 113.65 129.772 92.3302 126.826 65.5291C124.469 44.0882 129.749 16.6863 131.216 16.6191C132.682 16.5519 142.769 37.1326 145.939 62.698Z" fill="black"/>
</svg>
