<svg width="210" height="129" viewBox="0 0 210 129" fill="none" xmlns="http://www.w3.org/2000/svg">
<path d="M92.3571 62.5356C93.0892 79.6048 88.7294 95.2327 81.1385 106.699C73.5469 118.167 62.7761 125.411 50.6559 125.931C38.5356 126.451 27.1842 120.156 18.6384 109.38C10.0936 98.6055 4.41164 83.4083 3.67951 66.3391C2.94738 49.2699 7.30717 33.642 14.8981 22.1754C22.4897 10.7076 33.2605 3.46357 45.3807 2.94371C57.5009 2.42385 68.8524 8.71903 77.3981 19.4946C85.943 30.2692 91.6249 45.4664 92.3571 62.5356Z" fill="white" stroke="black" stroke-width="2"/>
<path d="M45.9388 62.6979C50.0844 96.1326 42.7641 113.56 41.774 113.605C40.7839 113.65 29.7715 92.3302 26.8256 65.5291C24.4688 44.0881 29.7495 16.6863 31.2156 16.6191C32.6818 16.5519 42.769 37.1326 45.9388 62.6979Z" fill="black"/>
<path d="M205.357 62.5356C206.089 79.6048 201.729 95.2327 194.139 106.699C186.547 118.167 175.776 125.411 163.656 125.931C151.536 126.451 140.184 120.156 131.638 109.38C123.094 98.6055 117.412 83.4083 116.68 66.3391C115.947 49.2699 120.307 33.642 127.898 22.1754C135.49 10.7076 146.26 3.46357 158.381 2.94371C170.501 2.42385 181.852 8.71903 190.398 19.4946C198.943 30.2692 204.625 45.4664 205.357 62.5356Z" fill="white" stroke="black" stroke-width="2"/>
<path d="M158.939 62.6979C163.084 96.1326 155.764 113.56 154.774 113.605C153.784 113.65 142.772 92.3302 139.826 65.5291C137.469 44.0881 142.75 16.6863 144.216 16.6191C145.682 16.5519 155.769 37.1326 158.939 62.6979Z" fill="black"/>
</svg>
