<svg width="79" height="101" viewBox="0 0 79 101" fill="none" xmlns="http://www.w3.org/2000/svg">
<path d="M73.5 84.5C68.8266 86.384 55.4472 82.5836 52.5 83C49.5528 83.4164 35.5 99 26.5 100C17.5 101 20 94.5 20 94.5C20 94.5 6 103 7.5 92C7.5 92 1 93.5 1 89C1 84.5 9 81.4999 12.5 80.5C16 79.5 21.5 78.5 30.5 78.5H49.5C49.5 78.5 49.5 76.922 49.5073 74.5C49.5108 73.3348 49.5159 71.9742 49.5236 70.5C49.5349 68.3264 49.5516 65.9058 49.5763 63.5C49.5939 61.7948 49.6154 60.0971 49.6419 58.5C49.6762 56.4301 49.7188 54.5291 49.7718 53C49.833 51.231 49.9081 49.9597 50 49.5C50.5 47 58.5 47 58.5 49.5V53V58.5V63.5V70.5V74.5V77.5C63.1232 76.385 65.6392 75.9546 70 75.5C81 74.5 78.1734 82.6159 73.5 84.5Z" fill="#A57A45"/>
<path d="M20 94.5C20 94.5 17.5 101 26.5 100C35.5 99 49.5528 83.4164 52.5 83C55.4472 82.5836 68.8266 86.384 73.5 84.5C78.1734 82.6159 81 74.5 70 75.5C65.6392 75.9546 63.1232 76.385 58.5 77.5C58.5 77.5 58.5 76.3439 58.5 74.5M20 94.5C20 94.5 6 103 7.5 92M20 94.5C25.887 88.6164 30.1069 85.8373 40.5 82.5M7.5 92C7.5 92 1 93.5 1 89C1 84.5 9 81.4999 12.5 80.5C16 79.5 21.5 78.5 30.5 78.5C39.5 78.5 49.5 78.5 49.5 78.5C49.5 78.5 49.5 76.922 49.5073 74.5M7.5 92C14.7637 85.5107 20.6532 83.0992 34.5 81M49.5073 74.5C52.7057 75.4559 54.6812 75.4433 58.5 74.5M49.5073 74.5C49.5108 73.3348 49.5159 71.9742 49.5236 70.5M58.5 74.5C58.5 73.384 58.5 72.0161 58.5 70.5M49.5236 70.5C52.9238 71.6153 54.8952 71.6197 58.5 70.5M49.5236 70.5C49.5349 68.3264 49.5516 65.9058 49.5763 63.5M58.5 70.5C58.5 68.364 58.5 65.9339 58.5 63.5M49.5763 63.5C52.8565 64.5513 54.8077 64.5477 58.5 63.5M49.5763 63.5C49.5939 61.7948 49.6154 60.0971 49.6419 58.5M58.5 63.5C58.5 61.8024 58.5 60.1029 58.5 58.5M49.6419 58.5C53.0993 59.6104 55.0421 59.5983 58.5 58.5M49.6419 58.5C49.6762 56.4301 49.7188 54.5291 49.7718 53M58.5 58.5C58.5 56.4366 58.5 54.5333 58.5 53M49.7718 53C49.833 51.231 49.9081 49.9597 50 49.5C50.5 47 58.5 47 58.5 49.5C58.5 49.9676 58.5 51.2401 58.5 53M49.7718 53C53.2859 54.3416 55.1927 54.2798 58.5 53" stroke="black"/>
<path d="M30.5 12C28.0963 22.5 35.8217 41.1036 50.204 48.4876C53.6509 46.649 55.5081 46.6838 58.704 48.4876C66.8743 39.8876 74.959 16.1371 69 7.00001C61.5 -4.5 32.9037 1.5 30.5 12Z" fill="#A7A7A9" stroke="black"/>
</svg>
