<svg width="79" height="100" viewBox="0 0 79 100" fill="none" xmlns="http://www.w3.org/2000/svg">
<path d="M5.13037 83.3749C9.80376 85.259 23.1832 81.4585 26.1304 81.8749C29.0775 82.2913 43.1304 97.8749 52.1304 98.8749C61.1304 99.8749 58.6304 93.3749 58.6304 93.3749C58.6304 93.3749 72.6304 101.875 71.1304 90.8749C71.1304 90.8749 77.6304 92.3749 77.6304 87.8749C77.6304 83.3749 69.6304 80.3749 66.1304 79.3749C62.6304 78.3749 57.1304 77.3749 48.1304 77.3749H29.1304C29.1304 77.3749 29.1304 75.797 29.1231 73.3749C29.1196 72.2097 29.1144 70.8492 29.1068 69.3749C29.0955 67.2014 29.0788 64.7808 29.054 62.3749C29.0365 60.6698 29.015 58.9721 28.9885 57.3749C28.9542 55.305 28.9115 53.4041 28.8586 51.8749C28.7974 50.106 28.7223 48.8347 28.6304 48.3749C28.1304 45.8749 20.1304 45.8749 20.1304 48.3749V51.8749V57.3749V62.3749V69.3749V73.3749V76.3749C15.5072 75.26 12.9912 74.8296 8.63037 74.3749C-2.36963 73.3749 0.456978 81.4909 5.13037 83.3749Z" fill="#A57A45"/>
<path d="M58.6304 93.3749C58.6304 93.3749 61.1304 99.8749 52.1304 98.8749C43.1304 97.8749 29.0775 82.2913 26.1304 81.8749C23.1832 81.4585 9.80376 85.259 5.13037 83.3749C0.45698 81.4909 -2.36963 73.3749 8.63037 74.3749C12.9912 74.8296 15.5072 75.26 20.1304 76.3749C20.1304 76.3749 20.1304 75.2189 20.1304 73.3749M58.6304 93.3749C58.6304 93.3749 72.6304 101.875 71.1304 90.8749M58.6304 93.3749C52.7433 87.4914 48.5234 84.7122 38.1304 81.3749M71.1304 90.8749C71.1304 90.8749 77.6304 92.3749 77.6304 87.8749C77.6304 83.3749 69.6304 80.3749 66.1304 79.3749C62.6304 78.3749 57.1304 77.3749 48.1304 77.3749C39.1304 77.3749 29.1304 77.3749 29.1304 77.3749C29.1304 77.3749 29.1304 75.797 29.1231 73.3749M71.1304 90.8749C63.8666 84.3857 57.9772 81.9742 44.1304 79.8749M29.1231 73.3749C25.9247 74.3308 23.9492 74.3183 20.1304 73.3749M29.1231 73.3749C29.1196 72.2097 29.1144 70.8492 29.1068 69.3749M20.1304 73.3749C20.1304 72.259 20.1304 70.891 20.1304 69.3749M29.1068 69.3749C25.7065 70.4902 23.7351 70.4947 20.1304 69.3749M29.1068 69.3749C29.0955 67.2014 29.0788 64.7808 29.054 62.3749M20.1304 69.3749C20.1304 67.239 20.1304 64.8089 20.1304 62.3749M29.054 62.3749C25.7738 63.4263 23.8227 63.4227 20.1304 62.3749M29.054 62.3749C29.0365 60.6698 29.015 58.9721 28.9885 57.3749M20.1304 62.3749C20.1304 60.6773 20.1304 58.9779 20.1304 57.3749M28.9885 57.3749C25.531 58.4854 23.5883 58.4732 20.1304 57.3749M28.9885 57.3749C28.9542 55.305 28.9115 53.4041 28.8586 51.8749M20.1304 57.3749C20.1304 55.3116 20.1304 53.4083 20.1304 51.8749M28.8586 51.8749C28.7974 50.106 28.7223 48.8347 28.6304 48.3749C28.1304 45.8749 20.1304 45.8749 20.1304 48.3749C20.1304 48.8426 20.1304 50.1151 20.1304 51.8749M28.8586 51.8749C25.3444 53.2166 23.4377 53.1548 20.1304 51.8749" stroke="black"/>
<path d="M20.0001 47.4999C4.6464 41.0915 -1.5 14 4.99999 6.49999C11.5 -1.00001 36.0426 -1.59868 43.5 6.49999C50.9573 14.5987 37.677 45.6279 28.5001 46.9999C24.6988 45.8022 22.7964 45.7916 20.0001 47.4999Z" fill="#A7A7A9" stroke="black"/>
</svg>
