<svg width="122" height="65" viewBox="0 0 122 65" fill="none" xmlns="http://www.w3.org/2000/svg">
<path d="M36.3289 56.2934C32.5431 63.7314 10.449 52.5274 3.05225 36.7635C1.56131 32.2034 0.26421 32.6394 4.64587 26.5428C17.6857 7.09802 31.5416 2.92904 40.0595 4.82814C47.8167 0.937399 50.3099 1.75717 58.0737 5.52852C65.6352 2.47422 67.1792 -0.223766 75.4596 4.53913C84.1749 4.06057 88.1396 3.22798 94.2136 7.62753C94.2136 7.62753 119.237 16.6471 120.324 32.0965C120.253 43.6381 106.917 55.583 92.3147 59.8763C85.1717 65.2859 84.4207 63.5763 73.875 59.5731C68.2718 64.0889 65.0212 62.4208 53.7523 59.1976C49.6993 64.7932 43.6475 61.5944 36.3289 56.2934Z" fill="#846040"/>
<path d="M36.3289 56.2934C32.5431 63.7314 10.449 52.5274 3.05225 36.7635C1.56131 32.2034 0.26421 32.6394 4.64587 26.5428C17.6857 7.09802 31.5416 2.92904 40.0595 4.82814M36.3289 56.2934C43.6475 61.5944 49.6993 64.7932 53.7523 59.1976M36.3289 56.2934C40.2268 49.4738 40.7666 47.3223 35.3908 42.8111C38.7349 40.0449 41.9551 34.6007 36.9843 30.3828C41.4254 26.8085 42.1521 22.3958 38.9827 18.2479C44.3037 13.4587 44.9604 10.8474 40.0595 4.82814M53.7523 59.1976C65.0212 62.4208 68.2718 64.0889 73.875 59.5731M53.7523 59.1976C61.182 54.0835 58.7435 49.7788 54.4555 46.6728C61.449 40.0771 61.1347 37.2248 55.8083 31.6698C65.4589 22.608 56.0753 17.6634 56.0753 17.6634C62.4517 13.6252 62.2763 11.6594 58.0737 5.52852M73.875 59.5731C84.4207 63.5763 85.1717 65.2859 92.3147 59.8763M73.875 59.5731C79.4783 55.0574 78.3905 52.7992 73.1923 46.0256C80.5543 40.09 80.7222 37.3679 75.1073 31.4487C81.5439 27.7056 81.0434 21.5486 76.1842 18.0289C81.7878 12.3982 80.6006 9.49763 75.4596 4.53913M92.3147 59.8763C106.917 55.583 120.253 43.6381 120.324 32.0965C119.237 16.6471 94.2136 7.62753 94.2136 7.62753M92.3147 59.8763C98.1316 52.1754 95.824 50.4569 90.9414 45.3872C96.2946 41.8478 100.888 36.7756 91.725 32.3724C98.2608 28.4631 97.6933 22.9106 93.4614 19.7801C97.2974 14.4751 100.288 12.0271 94.2136 7.62753M94.2136 7.62753C88.1396 3.22798 84.1749 4.06057 75.4596 4.53913M75.4596 4.53913C67.1792 -0.223766 65.6352 2.47422 58.0737 5.52852M58.0737 5.52852C50.3099 1.75717 47.8167 0.937399 40.0595 4.82814" stroke="black" stroke-width="3"/>
</svg>
